<svg width="24" height="24" viewBox="0 0 24 24" fill="currentColor" stroke="currentColor" stroke-width="2" stroke-linecap="round" stroke-linejoin="round">
  <!-- Äußere Schicht -->
  <rect x="4" y="5" width="16" height="14"/>
  <!-- Wellenmuster für Dämmung -->
  <path d="M7 5v14"/>
  <path d="M10 5v14"/>
  <path d="M13 5v14"/>
  <path d="M16 5v14"/>
  <!-- Wellenlinien -->
  <path d="M4 9c1 1 2 1 3 0s2-1 3 0 2 1 3 0 2-1 3 0 2 1 3 0"/>
  <path d="M4 15c1-1 2-1 3 0s2 1 3 0 2-1 3 0 2 1 3 0 2-1 3 0"/>
</svg>
