<?xml version="1.0" encoding="UTF-8"?>
<svg xmlns="http://www.w3.org/2000/svg" style="display: none;">
  <symbol id="icon-anchor-wall" viewBox="0 0 24 24">
  <!-- Dübel Körper -->
  <rect x="10" y="4" width="4" height="12"/>
  <!-- Spreizflügel links -->
  <path d="M10 8l-3 2v4l3 2"/>
  <!-- Spreizflügel rechts -->
  <path d="M14 8l3 2v4l-3 2"/>
  <!-- Schraube Andeutung -->
  <circle cx="12" cy="6" r="1"/>
  <line x1="12" y1="7" x2="12" y2="14"/>
</symbol>
  <symbol id="icon-arrow-right" viewBox="0 0 24 24">
  <path stroke="currentColor" d="M0 0h24v24H0z" fill="currentColor"/>
  <path d="M5 12l14 0" />
  <path d="M13 18l6 -6" />
  <path d="M13 6l6 6" />
</symbol>
  <symbol id="icon-beam" viewBox="0 0 24 24">
  <!-- I-Träger von der Seite -->
  <path d="M7 4h10v3H7z"/>
  <rect x="10" y="7" width="4" height="10"/>
  <path d="M7 17h10v3H7z"/>
  <!-- Mittellinien für Tiefe -->
  <line x1="7" y1="4" x2="7" y2="7"/>
  <line x1="17" y1="4" x2="17" y2="7"/>
  <line x1="7" y1="17" x2="7" y2="20"/>
  <line x1="17" y1="17" x2="17" y2="20"/>
</symbol>
  <symbol id="icon-bolt" viewBox="0 0 24 24">
  <path stroke="currentColor" d="M0 0h24v24H0z" fill="currentColor"/>
  <path d="M13 3l0 7l6 0l-8 11l0 -7l-6 0l8 -11" />
</symbol>
  <symbol id="icon-caliper" viewBox="0 0 24 24">
  <!-- Hauptbalken -->
  <rect x="2" y="11" width="20" height="2"/>
  <!-- Feste Backe links -->
  <path d="M4 11V7h2v4"/>
  <path d="M4 13v4h2v-4"/>
  <!-- Bewegliche Backe -->
  <path d="M14 11V5h2v6"/>
  <path d="M14 13v6h2v-6"/>
  <!-- Skala Markierungen -->
  <line x1="8" y1="11" x2="8" y2="13"/>
  <line x1="10" y1="11" x2="10" y2="13"/>
  <line x1="12" y1="11" x2="12" y2="13"/>
  <!-- Messobjekt (angedeutet) -->
  <circle cx="10" cy="9" r="2" stroke-dasharray="2 2"/>
</symbol>
  <symbol id="icon-category" viewBox="0 0 24 24">
  <path stroke="currentColor" d="M0 0h24v24H0z" fill="currentColor"/>
  <path d="M4 4h6v6h-6z" />
  <path d="M14 4h6v6h-6z" />
  <path d="M4 14h6v6h-6z" />
  <path d="M17 17m-3 0a3 3 0 1 0 6 0a3 3 0 1 0 -6 0" />
</symbol>
  <symbol id="icon-check" viewBox="0 0 24 24">
  <path stroke="currentColor" d="M0 0h24v24H0z" fill="currentColor"/>
  <path d="M5 12l5 5l10 -10" />
</symbol>
  <symbol id="icon-compress" viewBox="0 0 24 24">
  <path stroke="currentColor" d="M0 0h24v24H0z" fill="currentColor"/>
  <path d="M5 9l4 0l0 -4" />
  <path d="M3 3l6 6" />
  <path d="M5 15l4 0l0 4" />
  <path d="M3 21l6 -6" />
  <path d="M19 9l-4 0l0 -4" />
  <path d="M15 9l6 -6" />
  <path d="M19 15l-4 0l0 4" />
  <path d="M15 15l6 6" />
</symbol>
  <symbol id="icon-concrete" viewBox="0 0 24 24">
  <!-- Betonblock -->
  <rect x="4" y="6" width="16" height="12"/>
  <!-- Oberflächentextur (Punkte für Zuschlagstoffe) -->
  <circle cx="7" cy="9" r="0.5"/>
  <circle cx="12" cy="10" r="0.5"/>
  <circle cx="17" cy="9" r="0.5"/>
  <circle cx="9" cy="13" r="0.5"/>
  <circle cx="15" cy="14" r="0.5"/>
  <circle cx="11" cy="16" r="0.5"/>
  <circle cx="16" cy="15" r="0.5"/>
  <!-- Kanten -->
  <line x1="4" y1="6" x2="20" y2="6"/>
  <line x1="4" y1="18" x2="20" y2="18"/>
</symbol>
  <symbol id="icon-cross" viewBox="0 0 24 24">
  <path stroke="currentColor" d="M0 0h24v24H0z" fill="currentColor"/>
  <path d="M18 6l-12 12" />
  <path d="M6 6l12 12" />
</symbol>
  <symbol id="icon-cut" viewBox="0 0 24 24">
  <path stroke="currentColor" d="M0 0h24v24H0z" fill="currentColor"/>
  <path d="M7 17m-3 0a3 3 0 1 0 6 0a3 3 0 1 0 -6 0" />
  <path d="M17 17m-3 0a3 3 0 1 0 6 0a3 3 0 1 0 -6 0" />
  <path d="M9.15 14.85l8.85 -10.85" />
  <path d="M6 4l8.85 10.85" />
</symbol>
  <symbol id="icon-door" viewBox="0 0 24 24">
  <path stroke="currentColor" d="M0 0h24v24H0z" fill="currentColor"/>
  <path d="M14 12v.01" />
  <path d="M3 21h18" />
  <path d="M6 21v-16a2 2 0 0 1 2 -2h8a2 2 0 0 1 2 2v16" />
</symbol>
  <symbol id="icon-drill" viewBox="0 0 24 24">
  <!-- Hauptkörper -->
  <rect x="8" y="4" width="8" height="10" rx="1"/>
  <!-- Griff -->
  <path d="M16 7h3a1 1 0 0 1 1 1v2a1 1 0 0 1-1 1h-3"/>
  <!-- Trigger -->
  <path d="M18 9v1"/>
  <!-- Bohrfutter -->
  <rect x="10" y="14" width="4" height="3"/>
  <!-- Bohrer -->
  <line x1="12" y1="17" x2="12" y2="21"/>
  <!-- Spirale am Bohrer -->
  <path d="M11 18l2 2m-2-1l2 2"/>
</symbol>
  <symbol id="icon-fabric" viewBox="0 0 24 24"><!--! Font Awesome Free 6.7.2 by @fontawesome - https://fontawesome.com License - https://fontawesome.com/license/free (Icons: CC BY 4.0, Fonts: SIL OFL 1.1, Code: MIT License) Copyright 2024 Fonticons, Inc. --><path d="M211.8 0c7.8 0 14.3 5.7 16.7 13.2C240.8 51.9 277.1 80 320 80s79.2-28.1 91.5-66.8C413.9 5.7 420.4 0 428.2 0l12.6 0c22.5 0 44.2 7.9 61.5 22.3L628.5 127.4c6.6 5.5 10.7 13.5 11.4 22.1s-2.1 17.1-7.8 23.6l-56 64c-11.4 13.1-31.2 14.6-44.6 3.5L480 197.7 480 448c0 35.3-28.7 64-64 64l-192 0c-35.3 0-64-28.7-64-64l0-250.3-51.5 42.9c-13.3 11.1-33.1 9.6-44.6-3.5l-56-64c-5.7-6.5-8.5-15-7.8-23.6s4.8-16.6 11.4-22.1L137.7 22.3C155 7.9 176.7 0 199.2 0l12.6 0z"/></symbol>
  <symbol id="icon-fence" viewBox="0 0 24 24">
  <path stroke="currentColor" d="M0 0h24v24H0z" fill="currentColor"/>
  <path d="M4 12v4h16v-4z" />
  <path d="M6 16v4h4v-4m0 -4v-6l-2 -2l-2 2v6" />
  <path d="M14 16v4h4v-4m0 -4v-6l-2 -2l-2 2v6" />
</symbol>
  <symbol id="icon-fire" viewBox="0 0 24 24">
  <path stroke="currentColor" d="M0 0h24v24H0z" fill="currentColor"/>
  <path d="M12 12c2 -2.96 0 -7 -1 -8c0 3.038 -1.773 4.741 -3 6c-1.226 1.26 -2 3.24 -2 5a6 6 0 1 0 12 0c0 -1.532 -1.056 -3.94 -2 -5c-1.786 3 -2.791 3 -4 2z" />
</symbol>
  <symbol id="icon-fix" viewBox="0 0 24 24">
  <path stroke="currentColor" d="M0 0h24v24H0z" fill="currentColor"/>
  <path d="M7 10h3v-3l-3.5 -3.5a6 6 0 0 1 8 8l6 6a2 2 0 0 1 -3 3l-6 -6a6 6 0 0 1 -8 -8l3.5 3.5" />
</symbol>
  <symbol id="icon-floor" viewBox="0 0 24 24"><path d="M10,5V10H9V5H5V13H9V12H10V17H9V14H5V19H12V17H13V19H19V17H21V21H3V3H21V15H19V10H13V15H12V9H19V5H10Z" /></symbol>
  <symbol id="icon-gear" viewBox="0 0 24 24">
  <path stroke="currentColor" d="M0 0h24v24H0z" fill="currentColor"/>
  <path d="M10.325 4.317c.426 -1.756 2.924 -1.756 3.35 0a1.724 1.724 0 0 0 2.573 1.066c1.543 -.94 3.31 .826 2.37 2.37a1.724 1.724 0 0 0 1.065 2.572c1.756 .426 1.756 2.924 0 3.35a1.724 1.724 0 0 0 -1.066 2.573c.94 1.543 -.826 3.31 -2.37 2.37a1.724 1.724 0 0 0 -2.572 1.065c-.426 1.756 -2.924 1.756 -3.35 0a1.724 1.724 0 0 0 -2.573 -1.066c-1.543 .94 -3.31 -.826 -2.37 -2.37a1.724 1.724 0 0 0 -1.065 -2.572c-1.756 -.426 -1.756 -2.924 0 -3.35a1.724 1.724 0 0 0 1.066 -2.573c-.94 -1.543 .826 -3.31 2.37 -2.37c1 .608 2.296 .07 2.572 -1.065z" />
  <path d="M9 12a3 3 0 1 0 6 0a3 3 0 0 0 -6 0" />
</symbol>
  <symbol id="icon-glasses-safety" viewBox="0 0 24 24"><path d="M18,9C19.11,9 20,9.89 20,11V14C20,15.11 19.11,16 18,16H15.77L14.53,14.77C13.78,14 12.77,13.6 11.7,13.6C10.63,13.6 9.63,14 8.87,14.77L7.64,16H6C4.89,16 4,15.11 4,14V11C4,9.89 4.89,9 6,9H18M18,7H6A4,4 0 0,0 2,11H2L1,11V14H2V14A4,4 0 0,0 6,18H8.5C8.54,17.94 8.59,17.88 10.29,16.18C10.68,15.79 11.19,15.6 11.7,15.6C12.22,15.6 12.73,15.79 13.12,16.18L14.91,18H18A4,4 0 0,0 22,14H22L23,14V11H22V11A4,4 0 0,0 18,7Z" /></symbol>
  <symbol id="icon-glass" viewBox="0 0 24 24">
  <path stroke="currentColor" d="M0 0h24v24H0z" fill="currentColor"/>
  <path d="M8 21h8" />
  <path d="M12 16v5" />
  <path d="M17 5l1 6c0 3.012 -2.686 5 -6 5s-6 -1.988 -6 -5l1 -6" />
  <path d="M12 5m-5 0a5 2 0 1 0 10 0a5 2 0 1 0 -10 0" />
</symbol>
  <symbol id="icon-gloves" viewBox="0 0 24 24"><!--! Font Awesome Free 6.7.2 by @fontawesome - https://fontawesome.com License - https://fontawesome.com/license/free (Icons: CC BY 4.0, Fonts: SIL OFL 1.1, Code: MIT License) Copyright 2024 Fonticons, Inc. --><path d="M544 160l-.1 72.6c-.1 52.2-24 101-64 133.1c.1-1.9 .1-3.8 .1-5.7l0-8c0-71.8-37-138.6-97.9-176.7l-60.2-37.6c-8.6-5.4-17.9-8.4-27.3-9.4L248.7 48.8c-6.6-11.5-2.7-26.2 8.8-32.8s26.2-2.7 32.8 8.8l78 135.1c3.3 5.7 10.7 7.7 16.4 4.4s7.7-10.7 4.4-16.4l-62-107.4c-6.6-11.5-2.7-26.2 8.8-32.8S362 5 368.6 16.5l68 117.8s0 0 0 0s0 0 0 0l43.3 75L480 160c0-17.7 14.4-32 32-32s32 14.4 32 32zM243.9 88.5L268.5 131c-13.9 4.5-26.4 13.7-34.7 27c-.9 1.4-1.7 2.9-2.5 4.4l-28.9-50c-6.6-11.5-2.7-26.2 8.8-32.8s26.2-2.7 32.8 8.8zm-46.4 63.7l26.8 46.4c.6 6 2.1 11.8 4.3 17.4l-4.7 0-13.3 0s0 0 0 0L179 216l-23-39.8c-6.6-11.5-2.7-26.2 8.8-32.8s26.2-2.7 32.8 8.8zM260.9 175c9.4-15 29.1-19.5 44.1-10.2l60.2 37.6C416.7 234.7 448 291.2 448 352l0 8c0 83.9-68.1 152-152 152l-176 0c-13.3 0-24-10.7-24-24s10.7-24 24-24l92 0c6.6 0 12-5.4 12-12s-5.4-12-12-12L88 440c-13.3 0-24-10.7-24-24s10.7-24 24-24l124 0c6.6 0 12-5.4 12-12s-5.4-12-12-12L56 368c-13.3 0-24-10.7-24-24s10.7-24 24-24l156 0c6.6 0 12-5.4 12-12s-5.4-12-12-12L88 296c-13.3 0-24-10.7-24-24s10.7-24 24-24l136 0s0 0 0 0s0 0 0 0l93.2 0L271 219.1c-15-9.4-19.5-29.1-10.2-44.1z"/></symbol>
  <symbol id="icon-hammer" viewBox="0 0 24 24">
  <path stroke="currentColor" d="M0 0h24v24H0z" fill="currentColor"/>
  <path d="M11.414 10l-7.383 7.418a2.091 2.091 0 0 0 0 2.967a2.11 2.11 0 0 0 2.976 0l7.407 -7.385" />
  <path d="M18.121 15.293l2.586 -2.586a1 1 0 0 0 0 -1.414l-7.586 -7.586a1 1 0 0 0 -1.414 0l-2.586 2.586a1 1 0 0 0 0 1.414l7.586 7.586a1 1 0 0 0 1.414 0z" />
</symbol>
  <symbol id="icon-helmet" viewBox="0 0 24 24">
  <path stroke="currentColor" d="M0 0h24v24H0z" fill="currentColor"/>
  <path d="M12 4a9 9 0 0 1 5.656 16h-11.312a9 9 0 0 1 5.656 -16z" />
  <path d="M20 9h-8.8a1 1 0 0 0 -.968 1.246c.507 2 1.596 3.418 3.268 4.254c2 1 4.333 1.5 7 1.5" />
</symbol>
  <symbol id="icon-house" viewBox="0 0 24 24">
  <path stroke="currentColor" d="M0 0h24v24H0z" fill="currentColor"/>
  <path d="M5 12l-2 0l9 -9l9 9l-2 0" />
  <path d="M5 12v7a2 2 0 0 0 2 2h10a2 2 0 0 0 2 -2v-7" />
  <path d="M9 21v-6a2 2 0 0 1 2 -2h2a2 2 0 0 1 2 2v6" />
</symbol>
  <symbol id="icon-info" viewBox="0 0 24 24">
  <path stroke="currentColor" d="M0 0h24v24H0z" fill="currentColor"/>
  <path d="M3 12a9 9 0 1 0 18 0a9 9 0 0 0 -18 0" />
  <path d="M12 9h.01" />
  <path d="M11 12h1v4h1" />
</symbol>
  <symbol id="icon-insulation" viewBox="0 0 24 24">
  <!-- Äußere Schicht -->
  <rect x="4" y="5" width="16" height="14"/>
  <!-- Wellenmuster für Dämmung -->
  <path d="M7 5v14"/>
  <path d="M10 5v14"/>
  <path d="M13 5v14"/>
  <path d="M16 5v14"/>
  <!-- Wellenlinien -->
  <path d="M4 9c1 1 2 1 3 0s2-1 3 0 2 1 3 0 2-1 3 0 2 1 3 0"/>
  <path d="M4 15c1-1 2-1 3 0s2 1 3 0 2-1 3 0 2 1 3 0 2-1 3 0"/>
</symbol>
  <symbol id="icon-layers" viewBox="0 0 24 24">
  <path stroke="currentColor" d="M0 0h24v24H0z" fill="currentColor"/>
  <path d="M8 4m0 2a2 2 0 0 1 2 -2h8a2 2 0 0 1 2 2v8a2 2 0 0 1 -2 2h-8a2 2 0 0 1 -2 -2z" />
  <path d="M16 16v2a2 2 0 0 1 -2 2h-8a2 2 0 0 1 -2 -2v-8a2 2 0 0 1 2 -2h2" />
</symbol>
  <symbol id="icon-maximize" viewBox="0 0 24 24">
  <path stroke="currentColor" d="M0 0h24v24H0z" fill="currentColor"/>
  <path d="M4 8v-2a2 2 0 0 1 2 -2h2" />
  <path d="M4 16v2a2 2 0 0 0 2 2h2" />
  <path d="M16 4h2a2 2 0 0 1 2 2v2" />
  <path d="M16 20h2a2 2 0 0 0 2 -2v-2" />
</symbol>
  <symbol id="icon-metal" viewBox="0 0 24 24">
  <!-- Metallplatte -->
  <rect x="4" y="4" width="16" height="16" rx="1"/>
  <!-- Reflexionslinien (typisch für Metall) -->
  <line x1="7" y1="4" x2="13" y2="20"/>
  <line x1="11" y1="4" x2="17" y2="20"/>
  <!-- Schrauben/Befestigungspunkte -->
  <circle cx="6" cy="6" r="1"/>
  <circle cx="18" cy="6" r="1"/>
  <circle cx="6" cy="18" r="1"/>
  <circle cx="18" cy="18" r="1"/>
</symbol>
  <symbol id="icon-minus" viewBox="0 0 24 24">
  <path stroke="currentColor" d="M0 0h24v24H0z" fill="currentColor"/>
  <path d="M5 12l14 0" />
</symbol>
  <symbol id="icon-nail" viewBox="0 0 24 24"><path d="M13.5,5V16L12,22L10.5,16V5H13.5M17,2H7V4H17V2Z" /></symbol>
  <symbol id="icon-paint-can" viewBox="0 0 24 24">
  <path stroke="currentColor" d="M0 0h24v24H0z" fill="currentColor"/>
  <path d="M5 3m0 2a2 2 0 0 1 2 -2h10a2 2 0 0 1 2 2v2a2 2 0 0 1 -2 2h-10a2 2 0 0 1 -2 -2z" />
  <path d="M19 6h1a2 2 0 0 1 2 2a5 5 0 0 1 -5 5l-5 0v2" />
  <path d="M10 15m0 1a1 1 0 0 1 1 -1h2a1 1 0 0 1 1 1v4a1 1 0 0 1 -1 1h-2a1 1 0 0 1 -1 -1z" />
</symbol>
  <symbol id="icon-pipe" viewBox="0 0 24 24"><path d="M22,14H20V16H14V13H16V11H14V6A2,2 0 0,0 12,4H4V2H2V10H4V8H10V11H8V13H10V18A2,2 0 0,0 12,20H20V22H22" /></symbol>
  <symbol id="icon-plus" viewBox="0 0 24 24">
  <path stroke="currentColor" d="M0 0h24v24H0z" fill="currentColor"/>
  <path d="M12 5l0 14" />
  <path d="M5 12l14 0" />
</symbol>
  <symbol id="icon-power" viewBox="0 0 24 24">
  <path stroke="currentColor" d="M0 0h24v24H0z" fill="currentColor"/>
  <path d="M13 3l0 7l6 0l-8 11l0 -7l-6 0l8 -11" />
</symbol>
  <symbol id="icon-question" viewBox="0 0 24 24">
  <path stroke="currentColor" d="M0 0h24v24H0z" fill="currentColor"/>
  <path d="M8 8a3.5 3 0 0 1 3.5 -3h1a3.5 3 0 0 1 3.5 3a3 3 0 0 1 -2 3a3 4 0 0 0 -2 4" />
  <path d="M12 19l0 .01" />
</symbol>
  <symbol id="icon-rivet" viewBox="0 0 24 24">
  <!-- Kopf -->
  <ellipse cx="12" cy="6" rx="6" ry="3"/>
  <!-- Schaft -->
  <rect x="10" y="6" width="4" height="10"/>
  <!-- Unterer Wulst -->
  <ellipse cx="12" cy="16" rx="5" ry="2"/>
  <!-- Mittellinien -->
  <line x1="10" y1="9" x2="14" y2="9"/>
  <line x1="10" y1="13" x2="14" y2="13"/>
</symbol>
  <symbol id="icon-roller-paint" viewBox="0 0 24 24">
  <path stroke="currentColor" d="M0 0h24v24H0z" fill="currentColor"/>
  <path d="M5 3m0 2a2 2 0 0 1 2 -2h10a2 2 0 0 1 2 2v2a2 2 0 0 1 -2 2h-10a2 2 0 0 1 -2 -2z" />
  <path d="M19 6h1a2 2 0 0 1 2 2a5 5 0 0 1 -5 5l-5 0v2" />
  <path d="M10 15m0 1a1 1 0 0 1 1 -1h2a1 1 0 0 1 1 1v4a1 1 0 0 1 -1 1h-2a1 1 0 0 1 -1 -1z" />
</symbol>
  <symbol id="icon-roof" viewBox="0 0 24 24"><path d="M19 16H22L12 7L2 16H5L12 9.69L19 16M7 8.81V7H4V11.5L7 8.81Z" /></symbol>
  <symbol id="icon-ruler" viewBox="0 0 24 24">
  <path stroke="currentColor" d="M0 0h24v24H0z" fill="currentColor"/>
  <path d="M5 4h14a1 1 0 0 1 1 1v5a1 1 0 0 1 -1 1h-7a1 1 0 0 0 -1 1v7a1 1 0 0 1 -1 1h-5a1 1 0 0 1 -1 -1v-14a1 1 0 0 1 1 -1" />
  <path d="M4 8l2 0" />
  <path d="M4 12l3 0" />
  <path d="M4 16l2 0" />
  <path d="M8 4l0 2" />
  <path d="M12 4l0 3" />
  <path d="M16 4l0 2" />
</symbol>
  <symbol id="icon-saw-circular" viewBox="0 0 24 24"><path d="M13,11A1,1 0 0,1 14,12A1,1 0 0,1 13,13A1,1 0 0,1 12,12A1,1 0 0,1 13,11M7.86,6.25C9.14,4.87 10.97,4 13,4C16.5,4 19.44,6.61 19.93,10H22V12H16A3,3 0 0,0 13,9A3,3 0 0,0 10,12H2V10H2.05C2.25,7.73 3.14,5.66 4.5,4L7.86,6.25M6.73,7.89L5.06,6.77C4.53,7.75 4.18,8.84 4.06,10H6.07C6.18,9.25 6.4,8.54 6.73,7.89M7.4,15.4L6,14H11.79C12.03,14.42 12.5,14.7 13,14.7C13.5,14.7 13.97,14.42 14.21,14H20V15.4C18.39,14.42 18.46,15.75 18.46,15.75V17.71L16.5,19.67C16,17.92 15.1,18.9 15.1,18.9L13.7,20.3H10.9C11.88,18.69 10.55,18.76 10.55,18.76H8.59L6.63,16.8C8.38,16.31 7.4,15.4 7.4,15.4Z" /></symbol>
  <symbol id="icon-saw-hand" viewBox="0 0 24 24"><path d="M9.8,17L5.9,11.6L20,2L22,5V8H19V11H16V14H13V17M9.7,18.7L9.2,21.5L7.6,22.7C6.7,23.3 5.5,23.1 4.8,22.2L1.3,17.3C0.7,16.4 0.9,15.2 1.8,14.5L5.1,12.2L9.7,18.7M4.6,15L3,16.1L6.5,21L8.1,19.8L4.6,15Z" /></symbol>
  <symbol id="icon-screwdriver" viewBox="0 0 24 24">
  <path stroke="currentColor" d="M0 0h24v24H0z" fill="currentColor"/>
  <path d="M7 10h3v-3l-3.5 -3.5a6 6 0 0 1 8 8l6 6a2 2 0 0 1 -3 3l-6 -6a6 6 0 0 1 -8 -8l3.5 3.5" />
</symbol>
  <symbol id="icon-screw-metal" viewBox="0 0 24 24"><path d="M14.5,7.3L13.5,8V7H10.5V10L9.5,10.7V11.7L14.5,8.4V7.3M14.5,11.3L13.5,12V10L10.5,12V14L9.5,14.7V15.7L14.5,12.4V11.3M14.5,15.3L13.5,16V14L10.5,16V18L9.5,18.7V19.7L14.5,16.4V15.3M8,3C8,3 7,3 7,4L10,6H14L17,4C17,4 17,3 16,3C15,3 8,3 8,3M13.5,18V21H10.5V20L13.5,18Z" /></symbol>
  <symbol id="icon-screw-wood" viewBox="0 0 24 24"><path d="M13.5,17V19L12,22L10.5,19L13.5,17M14.5,6.3L13.5,7V6H10.5V9L9.5,9.7V10.7L14.5,7.4V6.3M14.5,10.3L13.5,11V9L10.5,11V13L9.5,13.7V14.7L14.5,11.4V10.3M14.5,14.3L13.5,15V13L10.5,15V17L9.5,17.7V18.7L14.5,15.4V14.3M8,2C8,2 7,2 7,3L10,5H14L17,3C17,3 17,2 16,2C15,2 8,2 8,2Z" /></symbol>
  <symbol id="icon-seal" viewBox="0 0 24 24"><path d="M20.39,19.37L16.38,18L15,22L11.92,16L9,22L7.62,18L3.61,19.37L6.53,13.37C5.57,12.17 5,10.65 5,9A7,7 0 0,1 12,2A7,7 0 0,1 19,9C19,10.65 18.43,12.17 17.47,13.37L20.39,19.37M7,9L9.69,10.34L9.5,13.34L12,11.68L14.5,13.33L14.33,10.34L17,9L14.32,7.65L14.5,4.67L12,6.31L9.5,4.65L9.67,7.66L7,9Z" /></symbol>
  <symbol id="icon-settings" viewBox="0 0 24 24">
  <path stroke="currentColor" d="M0 0h24v24H0z" fill="currentColor"/>
  <path d="M10.325 4.317c.426 -1.756 2.924 -1.756 3.35 0a1.724 1.724 0 0 0 2.573 1.066c1.543 -.94 3.31 .826 2.37 2.37a1.724 1.724 0 0 0 1.065 2.572c1.756 .426 1.756 2.924 0 3.35a1.724 1.724 0 0 0 -1.066 2.573c.94 1.543 -.826 3.31 -2.37 2.37a1.724 1.724 0 0 0 -2.572 1.065c-.426 1.756 -2.924 1.756 -3.35 0a1.724 1.724 0 0 0 -2.573 -1.066c-1.543 .94 -3.31 -.826 -2.37 -2.37a1.724 1.724 0 0 0 -1.065 -2.572c-1.756 -.426 -1.756 -2.924 0 -3.35a1.724 1.724 0 0 0 1.066 -2.573c-.94 -1.543 .826 -3.31 2.37 -2.37c1 .608 2.296 .07 2.572 -1.065z" />
  <path d="M9 12a3 3 0 1 0 6 0a3 3 0 0 0 -6 0" />
</symbol>
  <symbol id="icon-shield-check" viewBox="0 0 24 24">
  <path stroke="currentColor" d="M0 0h24v24H0z" fill="currentColor"/>
  <path d="M11.46 20.846a12 12 0 0 1 -7.96 -14.846a12 12 0 0 0 8.5 -3a12 12 0 0 0 8.5 3a12 12 0 0 1 -.09 7.06" />
  <path d="M15 19l2 2l4 -4" />
</symbol>
  <symbol id="icon-shield" viewBox="0 0 24 24">
  <path stroke="currentColor" d="M0 0h24v24H0z" fill="currentColor"/>
  <path d="M12 3a12 12 0 0 0 8.5 3a12 12 0 0 1 -8.5 15a12 12 0 0 1 -8.5 -15a12 12 0 0 0 8.5 -3" />
</symbol>
  <symbol id="icon-shiny" viewBox="0 0 24 24">
  <path stroke="currentColor" d="M0 0h24v24H0z" fill="currentColor"/>
  <path d="M16 18a2 2 0 0 1 2 2a2 2 0 0 1 2 -2a2 2 0 0 1 -2 -2a2 2 0 0 1 -2 2zm0 -12a2 2 0 0 1 2 2a2 2 0 0 1 2 -2a2 2 0 0 1 -2 -2a2 2 0 0 1 -2 2zm-7 12a6 6 0 0 1 6 -6a6 6 0 0 1 -6 -6a6 6 0 0 1 -6 6a6 6 0 0 1 6 6z" />
</symbol>
  <symbol id="icon-snowflake" viewBox="0 0 24 24">
  <path stroke="currentColor" d="M0 0h24v24H0z" fill="currentColor"/>
  <path d="M10 4l2 1l2 -1" />
  <path d="M12 2v6.5l3 1.72" />
  <path d="M17.928 6.268l.134 2.232l1.866 1.232" />
  <path d="M20.66 7l-5.629 3.25l.01 3.458" />
  <path d="M19.928 14.268l-1.866 1.232l-.134 2.232" />
  <path d="M20.66 17l-5.629 -3.25l-2.99 1.738" />
  <path d="M14 20l-2 -1l-2 1" />
  <path d="M12 22v-6.5l-3 -1.72" />
  <path d="M6.072 17.732l-.134 -2.232l-1.866 -1.232" />
  <path d="M3.34 17l5.629 -3.25l-.01 -3.458" />
  <path d="M4.072 9.732l1.866 -1.232l.134 -2.232" />
  <path d="M3.34 7l5.629 3.25l2.99 -1.738" />
</symbol>
  <symbol id="icon-sound-wave" viewBox="0 0 24 24">
  <path stroke="currentColor" d="M0 0h24v24H0z" fill="currentColor"/>
  <path d="M21 12h-2c-.894 0 -1.662 -.857 -1.761 -2c-.296 -3.45 -.749 -6 -2.749 -6s-2.5 3.582 -2.5 8s-.5 8 -2.5 8s-2.452 -2.547 -2.749 -6c-.1 -1.147 -.867 -2 -1.763 -2h-2" />
</symbol>
  <symbol id="icon-spatula" viewBox="0 0 24 24">
  <!-- Griff -->
  <rect x="10" y="14" width="4" height="8" rx="1"/>
  <!-- Klinge -->
  <path d="M7 2h10v12H7z"/>
  <!-- Griffende -->
  <line x1="12" y1="14" x2="12" y2="22"/>
</symbol>
  <symbol id="icon-stone" viewBox="0 0 24 24">
  <!-- Stein Umriss -->
  <path d="M5 12c0-3 2-6 5-7s6 0 8 2 1 5 0 8-4 5-7 5-6-2-6-5v-3z"/>
  <!-- Textur Linien -->
  <path d="M8 8l4 3"/>
  <path d="M14 11l2 4"/>
  <path d="M9 14l3 1"/>
</symbol>
  <symbol id="icon-sun" viewBox="0 0 24 24">
  <path stroke="currentColor" d="M0 0h24v24H0z" fill="currentColor"/>
  <path d="M12 12m-4 0a4 4 0 1 0 8 0a4 4 0 1 0 -8 0" />
  <path d="M3 12h1m8 -9v1m8 8h1m-9 8v1m-6.4 -15.4l.7 .7m12.1 -.7l-.7 .7m0 11.4l.7 .7m-12.1 -.7l-.7 .7" />
</symbol>
  <symbol id="icon-tag" viewBox="0 0 24 24">
  <path stroke="currentColor" d="M0 0h24v24H0z" fill="currentColor"/>
  <path d="M7.5 7.5m-1 0a1 1 0 1 0 2 0a1 1 0 1 0 -2 0" />
  <path d="M3 6v5.172a2 2 0 0 0 .586 1.414l7.71 7.71a2.41 2.41 0 0 0 3.408 0l5.592 -5.592a2.41 2.41 0 0 0 0 -3.408l-7.71 -7.71a2 2 0 0 0 -1.414 -.586h-5.172a3 3 0 0 0 -3 3z" />
</symbol>
  
  <symbol id="icon-toolbox" viewBox="0 0 24 24"><path d="M18 16H16V15H8V16H6V15H2V20H22V15H18V16M20 8H17V6C17 4.9 16.1 4 15 4H9C7.9 4 7 4.9 7 6V8H4C2.9 8 2 8.9 2 10V14H6V12H8V14H16V12H18V14H22V10C22 8.9 21.1 8 20 8M15 8H9V6H15V8Z" /></symbol>
  <symbol id="icon-wall-brick" viewBox="0 0 24 24">
  <path stroke="currentColor" d="M0 0h24v24H0z" fill="currentColor"/>
  <path d="M4 4m0 2a2 2 0 0 1 2 -2h12a2 2 0 0 1 2 2v12a2 2 0 0 1 -2 2h-12a2 2 0 0 1 -2 -2z" />
  <path d="M4 8h16" />
  <path d="M20 12h-16" />
  <path d="M4 16h16" />
  <path d="M9 4v4" />
  <path d="M14 8v4" />
  <path d="M8 12v4" />
  <path d="M16 12v4" />
  <path d="M11 16v4" />
</symbol>
  <symbol id="icon-water-drop" viewBox="0 0 24 24">
  <path stroke="currentColor" d="M0 0h24v24H0z" fill="currentColor"/>
  <path d="M7.502 19.423c2.602 2.105 6.395 2.105 8.996 0c2.602 -2.105 3.262 -5.708 1.566 -8.546l-4.89 -7.26c-.42 -.625 -1.287 -.803 -1.936 -.397a1.376 1.376 0 0 0 -.41 .397l-4.893 7.26c-1.695 2.838 -1.035 6.441 1.567 8.546z" />
</symbol>
  <symbol id="icon-weight" viewBox="0 0 24 24">
  <path stroke="currentColor" d="M0 0h24v24H0z" fill="currentColor"/>
  <path d="M7 20l10 0" />
  <path d="M6 6l6 -1l6 1" />
  <path d="M12 3l0 17" />
  <path d="M9 12l-3 -6l-3 6a3 3 0 0 0 6 0" />
  <path d="M21 12l-3 -6l-3 6a3 3 0 0 0 6 0" />
</symbol>
  <symbol id="icon-window" viewBox="0 0 24 24">
  <path stroke="currentColor" d="M0 0h24v24H0z" fill="currentColor"/>
  <path d="M12 3c-3.866 0 -7 3.272 -7 7v10a1 1 0 0 0 1 1h12a1 1 0 0 0 1 -1v-10c0 -3.728 -3.134 -7 -7 -7z" />
  <path d="M5 13l14 0" />
  <path d="M12 3l0 18" />
</symbol>
  <symbol id="icon-wind" viewBox="0 0 24 24">
  <path stroke="currentColor" d="M0 0h24v24H0z" fill="currentColor"/>
  <path d="M5 8h8.5a2.5 2.5 0 1 0 -2.34 -3.24" />
  <path d="M3 12h15.5a2.5 2.5 0 1 1 -2.34 3.24" />
  <path d="M4 16h5.5a2.5 2.5 0 1 1 -2.34 3.24" />
</symbol>
  <symbol id="icon-wood" viewBox="0 0 24 24">
  <path stroke="currentColor" d="M0 0h24v24H0z" fill="currentColor"/>
  <path d="M12 13l-2 -2" />
  <path d="M12 12l2 -2" />
  <path d="M12 21v-13" />
  <path d="M9.824 16a3 3 0 0 1 -2.743 -3.69a3 3 0 0 1 .304 -4.833a3 3 0 0 1 4.615 -3.707a3 3 0 0 1 4.614 3.707a3 3 0 0 1 .305 4.833a3 3 0 0 1 -2.919 3.695h-4z" />
</symbol>
  <symbol id="icon-wrench" viewBox="0 0 24 24">
  <path stroke="currentColor" d="M0 0h24v24H0z" fill="currentColor"/>
  <path d="M7 10h3v-3l-3.5 -3.5a6 6 0 0 1 8 8l6 6a2 2 0 0 1 -3 3l-6 -6a6 6 0 0 1 -8 -8l3.5 3.5" />
</symbol>
</svg>
